<svg id="Capa_1" enable-background="new 0 0 512 512" height="512" viewBox="0 0 512 512" width="512" xmlns="http://www.w3.org/2000/svg"><g><g><path d="m502 146v60l-251 24-241-24v-60c0-11.05 8.95-20 20-20h452c11.05 0 20 8.95 20 20z" fill="#fff"/><path d="m502 206v220c0 11.05-8.95 20-20 20h-452c-11.05 0-20-8.95-20-20v-220z" fill="#ccf"/><path d="m376 246c44.11 0 80 35.89 80 80s-35.89 80-80 80-80-35.89-80-80 35.89-80 80-80zm20 80c0-11.03-8.97-20-20-20s-20 8.97-20 20 8.97 20 20 20 20-8.97 20-20z" fill="#fff"/><circle cx="376" cy="326" fill="#b9f" r="20"/><path d="m136 246c44.11 0 80 35.89 80 80s-35.89 80-80 80-80-35.89-80-80 35.89-80 80-80zm20 80c0-11.03-8.97-20-20-20s-20 8.97-20 20 8.97 20 20 20 20-8.97 20-20z" fill="#fff"/><circle cx="136" cy="326" fill="#b9f" r="20"/></g><g fill="#b578d3"><path d="m482 116h-96v-30c0-16.542-13.458-30-30-30h-200c-16.542 0-30 13.458-30 30v30h-96c-16.542 0-30 13.458-30 30v280c0 16.542 13.458 30 30 30h452c16.542 0 30-13.458 30-30v-280c0-16.542-13.458-30-30-30zm-336-30c0-5.514 4.486-10 10-10h200c5.514 0 10 4.486 10 10v30h-220zm-116 50h452c5.514 0 10 4.486 10 10v50h-296-176v-50c0-5.514 4.486-10 10-10zm452 300h-452c-5.514 0-10-4.486-10-10v-210h176 296v210c0 5.514-4.486 10-10 10z"/><path d="m136 236c-49.626 0-90 40.374-90 90s40.374 90 90 90 90-40.374 90-90-40.374-90-90-90zm0 160c-38.598 0-70-31.402-70-70s31.402-70 70-70 70 31.402 70 70-31.402 70-70 70z"/><path d="m136 296c-16.542 0-30 13.458-30 30s13.458 30 30 30 30-13.458 30-30-13.458-30-30-30zm0 40c-5.514 0-10-4.486-10-10s4.486-10 10-10 10 4.486 10 10-4.486 10-10 10z"/><path d="m376 236c-49.626 0-90 40.374-90 90s40.374 90 90 90 90-40.374 90-90-40.374-90-90-90zm0 160c-38.598 0-70-31.402-70-70s31.402-70 70-70 70 31.402 70 70-31.402 70-70 70z"/><path d="m376 296c-16.542 0-30 13.458-30 30s13.458 30 30 30 30-13.458 30-30-13.458-30-30-30zm0 40c-5.514 0-10-4.486-10-10s4.486-10 10-10 10 4.486 10 10-4.486 10-10 10z"/><path d="m256 256c-5.522 0-10 4.477-10 10v120c0 5.523 4.478 10 10 10s10-4.477 10-10v-120c0-5.523-4.478-10-10-10z"/><path d="m416 176h40c5.522 0 10-4.477 10-10s-4.478-10-10-10h-40c-5.522 0-10 4.477-10 10s4.478 10 10 10z"/><circle cx="336" cy="166" r="10"/><circle cx="296" cy="166" r="10"/><circle cx="256" cy="166" r="10"/><circle cx="216" cy="166" r="10"/><circle cx="176" cy="166" r="10"/><path d="m56 176h40c5.522 0 10-4.477 10-10s-4.478-10-10-10h-40c-5.522 0-10 4.477-10 10s4.478 10 10 10z"/></g></g></svg>