<svg id="Capa_1" enable-background="new 0 0 512 512" height="512" viewBox="0 0 512 512" width="512" xmlns="http://www.w3.org/2000/svg" xmlns:xlink="http://www.w3.org/1999/xlink"><linearGradient id="SVGID_1_" gradientTransform="matrix(.707 .707 -.707 .707 251.092 -120.498)" gradientUnits="userSpaceOnUse" x1="269.695" x2="269.695" y1="531.021" y2="21.021"><stop offset="0" stop-color="#fd5900"/><stop offset="1" stop-color="#ffde00"/></linearGradient><linearGradient id="SVGID_2_" gradientTransform="matrix(.707 .707 -.707 .707 251.092 -120.498)" gradientUnits="userSpaceOnUse" x1="269.695" x2="269.695" y1="588.574" y2="-80.674"><stop offset="0" stop-color="#ffe59a"/><stop offset="1" stop-color="#ffffd5"/></linearGradient><g><g><g><path d="m288.264 200.96-31.038-9.825-30.09 30.09v21.213h-21.213l-21.213 21.213v21.213h-21.213l-21.213 21.213v21.213h-21.214l-21.213 21.213v21.213h-21.214l-33.55 33.55 8.485 29.699 28.135 28.135 27.019 5.806 212.132-212.132-7.145-28.359zm154.075-100.484-30.146-30.146-27.688-6.475-30.09 30.09v21.213h-21.213l-33.55 33.55 7.815 29.028 26.796 26.796 29.028 7.815 84.853-84.853z" fill="url(#SVGID_1_)"/></g></g><g><g><path d="m184.709 263.651-21.213 21.213 21.213 21.213c5.863 5.863 15.351 5.863 21.213 0 5.863-5.863 5.863-15.351 0-21.213zm-42.426 42.427-21.213 21.213 21.213 21.213c5.863 5.863 15.351 5.863 21.213 0 5.863-5.862 5.863-15.351 0-21.213zm-42.427 42.426-21.213 21.213 21.213 21.213c5.863 5.862 15.351 5.862 21.213 0 5.863-5.863 5.863-15.351 0-21.213zm127.28-127.279-21.213 21.213 21.213 21.213c5.863 5.862 15.351 5.862 21.213 0 5.863-5.863 5.863-15.351 0-21.213zm127.279-127.28-21.213 21.213 21.213 21.213c5.863 5.862 15.351 5.862 21.213 0 5.863-5.863 5.863-15.351 0-21.213zm-97.189 97.19 63.64 63.64 42.426-42.426-63.64-63.64zm241.614-177.975c-17.546-17.546-46.093-17.546-63.64 0l-50.696 50.696 63.64 63.64 50.696-50.696c17.547-17.547 17.547-46.094 0-63.64zm-494.443 430.804c-5.863 5.863-5.863 15.351 0 21.213l42.426 42.426c5.863 5.863 15.351 5.863 21.213 0l40.697-40.697-63.64-63.64z" fill="url(#SVGID_2_)"/></g></g></g></svg>