<svg id="Capa_1" enable-background="new 0 0 512 512" height="512" viewBox="0 0 512 512" width="512" xmlns="http://www.w3.org/2000/svg"><g><g><path d="m466 110v60h-20c-22 0-40 18-40 40v-80c0-11 9-20 20-20z" fill="#ff99ad"/><path d="m406 10v60h-20c-22 0-40 18-40 40v-80c0-11 9-20 20-20z" fill="#ff99ad"/><path d="m286 50v352c0 22.09-17.91 40-40 40h-20-140c-22.09 0-40-17.91-40-40v-352c0-22.09 17.91-40 40-40h160c22.09 0 40 17.91 40 40z" fill="#fcc"/><path d="m106 70h120v120h-120z" fill="#fff"/><circle cx="166" cy="322" fill="#fff" r="60"/><circle cx="166" cy="322" fill="#ff6684" r="10"/></g><g fill="#ff6684"><path d="m106 200h120c5.522 0 10-4.477 10-10v-120c0-5.523-4.478-10-10-10h-120c-5.522 0-10 4.477-10 10v120c0 5.523 4.478 10 10 10zm10-120h100v100h-100z"/><path d="m166 252c-38.598 0-70 31.402-70 70s31.402 70 70 70 70-31.402 70-70-31.402-70-70-70zm0 120c-27.57 0-50-22.43-50-50s22.43-50 50-50 50 22.43 50 50-22.43 50-50 50z"/><path d="m466 100h-40c-16.542 0-30 13.458-30 30v80 132c0 16.542-13.458 30-30 30h-10v-262c0-16.542 13.458-30 30-30h20c5.522 0 10-4.477 10-10v-60c0-5.523-4.478-10-10-10h-40c-16.542 0-30 13.458-30 30v80 352c0 16.542-13.458 30-30 30h-40c-16.542 0-30-13.458-30-30v-10h10c27.57 0 50-22.43 50-50v-352c0-27.57-22.43-50-50-50h-160c-27.57 0-50 22.43-50 50v352c0 27.57 22.43 50 50 50h130v10c0 27.57 22.43 50 50 50h40c27.57 0 50-22.43 50-50v-70h10c27.57 0 50-22.43 50-50v-132c0-16.542 13.458-30 30-30h20c5.522 0 10-4.477 10-10v-60c0-5.523-4.478-10-10-10zm-110-70c0-5.514 4.486-10 10-10h30v40h-10c-11.246 0-21.638 3.733-30 10.024zm-300 372v-352c0-16.542 13.458-30 30-30h160c16.542 0 30 13.458 30 30v352c0 16.542-13.458 30-30 30h-160c-16.542 0-30-13.458-30-30zm400-242h-10c-11.246 0-21.638 3.733-30 10.024v-40.024c0-5.514 4.486-10 10-10h30z"/></g></g></svg>